# xmcd
#
# Track frame offsets:
# 150
# 6273
# 19011
# 39475
# 47770
# 54580
# 63231
# 75865
# 92893
# 98195
# 102603
# 111244
# 124447
# 138684
# 162878
# 166582
# 179943
# 192050
# 209767
# 217566
# 229887
# 243899
# 252260
# 257374
# 269024
# 280824
# 289940
# 301548
# 315919
#
# Disc length: 4329 seconds
#
#
# Revision: 0
# Processed by: cddbd v1.5.1PL0 Copyright (c) Steve Scherf et al.
# Submitted via: FreeRIP 2.942 
#
DISCID=9710e71d
DTITLE=dj madadam and dj spntaneous - quadraphonics presents - chicago fire
DYEAR=2005
DGENRE=hip hop
TTITLE0=intro - madadam, wes restless (good life rmx)
TTITLE1=feels so good (smp feat. eratic static and pace won)
TTITLE2=fall out (mass hysteria)
TTITLE3=slaughter house (rmx madadam feat. masta ace)
TTITLE4=no wins (long shot)
TTITLE5=keep spittin' (mecanix)
TTITLE6=i confess (iomos marad)
TTITLE7=persevere (rmx mass hysteria)
TTITLE8=funk cry (madadam)
TTITLE9=pabst blue rythim (madadam feat. wes restless)
TTITLE10=the funk (round table)
TTITLE11=get runk pt. 2 (rusty chains)
TTITLE12=drinkalot (seel fresh)
TTITLE13=alcohol (wes restless)
TTITLE14=chicago spontaneous intro
TTITLE15=period (juice)
TTITLE16=it don't stop (ec)
TTITLE17=stacks of 45s (rubberroom)
TTITLE18=c'mon (gray)
TTITLE19=thinkin' cap (all natural)
TTITLE20=big bang boogie (akbar)
TTITLE21=top 2 bottom (chicago avenews)
TTITLE22=mocturnalasshosonathursday (greenweedz)
TTITLE23=tiz tha seizin (vakill)
TTITLE24=down with these (ang 13)
TTITLE25=battle cry (primeridian)
TTITLE26=soul by the pound (common)
TTITLE27=especialty (pacifics)
TTITLE28=better safe than sorry (steady serv)
EXTD=
EXTT0=
EXTT1=
EXTT2=
EXTT3=
EXTT4=
EXTT5=
EXTT6=
EXTT7=
EXTT8=
EXTT9=
EXTT10=
EXTT11=
EXTT12=
EXTT13=
EXTT14=
EXTT15=
EXTT16=
EXTT17=
EXTT18=
EXTT19=
EXTT20=
EXTT21=
EXTT22=
EXTT23=
EXTT24=
EXTT25=
EXTT26=
EXTT27=
EXTT28=
PLAYORDER=
